<?xml version="1.0"?>
<svg xmlns="http://www.w3.org/2000/svg" id="Capa_1" enable-background="new 0 0 512 512" height="512px" viewBox="0 0 512 512" width="512px"><g><path d="m256 151c-57.897 0-105 47.103-105 105s47.103 105 105 105v-30c-41.355 0-75-33.645-75-75s33.645-75 75-75 75 33.645 75 75c0 8.271-6.729 15-15 15s-15-6.729-15-15c0-24.813-20.187-45-45-45s-45 20.187-45 45 20.187 45 45 45c11.517 0 22.032-4.354 30-11.495 7.968 7.142 18.483 11.495 30 11.495 24.813 0 45-20.187 45-45 0-57.897-47.103-105-105-105zm0 120c-8.271 0-15-6.729-15-15s6.729-15 15-15 15 6.729 15 15-6.729 15-15 15z" fill="#e6a100"/><path d="m452 392c-11.112 0-21.52 3.047-30.454 8.333l-38.806-38.806c23.874-28.625 38.26-65.425 38.26-105.527s-14.386-76.903-38.26-105.528l38.806-38.806c8.934 5.287 19.342 8.334 30.454 8.334 33.084 0 60-26.916 60-60s-26.916-60-60-60-60 26.916-60 60c0 11.111 3.047 21.52 8.333 30.454l-38.806 38.806c-28.625-23.874-65.426-38.26-105.527-38.26-40.102 0-76.903 14.386-105.528 38.26l-38.806-38.806c5.287-8.934 8.334-19.342 8.334-30.454 0-33.084-26.916-60-60-60s-60 26.916-60 60 26.916 60 60 60c11.111 0 21.52-3.047 30.453-8.333l38.806 38.806c-23.873 28.625-38.259 65.426-38.259 105.527 0 40.102 14.386 76.902 38.26 105.527l-38.806 38.806c-8.934-5.286-19.343-8.333-30.454-8.333-33.084 0-60 26.916-60 60s26.916 60 60 60 60-26.916 60-60c0-11.111-3.047-21.52-8.333-30.454l38.806-38.806c28.624 23.874 65.425 38.26 105.527 38.26 40.101 0 76.902-14.386 105.527-38.26l38.806 38.806c-5.286 8.934-8.333 19.343-8.333 30.454 0 33.084 26.916 60 60 60s60-26.916 60-60-26.916-60-60-60zm0-362c16.542 0 30 13.458 30 30s-13.458 30-30 30-30-13.458-30-30 13.458-30 30-30zm-392 60c-16.542 0-30-13.458-30-30s13.458-30 30-30 30 13.458 30 30-13.458 30-30 30zm0 392c-16.542 0-30-13.458-30-30s13.458-30 30-30 30 13.458 30 30-13.458 30-30 30zm196-91c-74.439 0-135-60.561-135-135s60.561-135 135-135 135 60.561 135 135-60.561 135-135 135zm196 91c-16.542 0-30-13.458-30-30s13.458-30 30-30 30 13.458 30 30-13.458 30-30 30z" fill="#e6a100"/></g></svg>
