<?xml version="1.0"?>
<svg xmlns="http://www.w3.org/2000/svg" height="512px" viewBox="-30 1 511 511.99958" width="512px"><path d="m285.5 152h-210c-8.285156 0-15 6.714844-15 15s6.714844 15 15 15h210c8.285156 0 15-6.714844 15-15s-6.714844-15-15-15zm0 0" fill="#FF404C"/><path d="m285.5 212h-210c-8.285156 0-15 6.714844-15 15s6.714844 15 15 15h210c8.285156 0 15-6.714844 15-15s-6.714844-15-15-15zm0 0" fill="#FF404C"/><path d="m285.5 272h-210c-8.285156 0-15 6.714844-15 15s6.714844 15 15 15h210c8.285156 0 15-6.714844 15-15s-6.714844-15-15-15zm0 0" fill="#FF404C"/><path d="m285.5 332h-210c-8.285156 0-15 6.714844-15 15s6.714844 15 15 15h210c8.285156 0 15-6.714844 15-15s-6.714844-15-15-15zm0 0" fill="#FF404C"/><path d="m225.5 392h-150c-8.285156 0-15 6.714844-15 15s6.714844 15 15 15h150c8.285156 0 15-6.714844 15-15s-6.714844-15-15-15zm0 0" fill="#FF404C"/><path d="m435.5 332h-75v-317c0-8.285156-6.71875-15-15-15-2.578125 0-238.558594-.00390625-240.179688.0078125-4.078124.0546875-7.804687 1.7656255-10.429687 4.3906255l-89.996094 89.992187c-2.6875 2.6875-4.398437 6.535156-4.394531 10.613281v346.996094c0 33.082031 26.914062 60 60 60h330.011719c32.828125-.003906 59.988281-26.519531 59.988281-60v-105c0-8.285156-6.714844-15-15-15zm-345-280.785156v38.785156h-38.789062zm-30 430.785156c-16.542969 0-30-13.457031-30-30v-332h75c8.285156 0 15-6.714844 15-15v-75h210v421.257812c0 11.179688 3.042969 21.699219 8.339844 30.742188zm360-30c0 16.851562-13.8125 30.292969-30.519531 29.996094-16.253907-.273438-29.480469-14.0625-29.480469-30.738282v-89.257812h60zm0 0" fill="#FF404C"/></svg>
